<?xml version="1.0" encoding="UTF-8" standalone="no"?>
<!-- Created with Inkscape (http://www.inkscape.org/) -->

<svg
   width="341.66016"
   height="354.06262"
   viewBox="0 0 90.397584 93.679071"
   version="1.1"
   id="svg1"
   xml:space="preserve"
   sodipodi:docname="settings.svg"
   inkscape:version="1.4.3 (0d15f75, 2025-12-25)"
   inkscape:export-filename="..\..\..\Art\Gato\2D\Demo Covers\demo_1_cover.svg"
   inkscape:export-xdpi="23.962503"
   inkscape:export-ydpi="23.962503"
   xmlns:inkscape="http://www.inkscape.org/namespaces/inkscape"
   xmlns:sodipodi="http://sodipodi.sourceforge.net/DTD/sodipodi-0.dtd"
   xmlns="http://www.w3.org/2000/svg"
   xmlns:svg="http://www.w3.org/2000/svg"><sodipodi:namedview
     id="namedview1"
     pagecolor="#ffffff"
     bordercolor="#000000"
     borderopacity="0.25"
     inkscape:showpageshadow="2"
     inkscape:pageopacity="0.0"
     inkscape:pagecheckerboard="0"
     inkscape:deskcolor="#d1d1d1"
     inkscape:document-units="px"
     inkscape:zoom="1.28"
     inkscape:cx="39295.312"
     inkscape:cy="1051.9531"
     inkscape:window-width="1920"
     inkscape:window-height="1009"
     inkscape:window-x="-8"
     inkscape:window-y="-8"
     inkscape:window-maximized="1"
     inkscape:current-layer="layer1"
     showgrid="false"><inkscape:grid
       id="grid12"
       units="mm"
       originx="-10311.05"
       originy="-184.76857"
       spacingx="1"
       spacingy="1"
       empcolor="#0099e5"
       empopacity="0.30196078"
       color="#0099e5"
       opacity="0.14901961"
       empspacing="5"
       dotted="false"
       gridanglex="30"
       gridanglez="30"
       visible="false" /><inkscape:page
       x="0"
       y="0"
       width="90.397583"
       height="93.67907"
       id="page2"
       margin="0"
       bleed="0" /></sodipodi:namedview><defs
     id="defs1"><linearGradient
       id="swatch87"
       inkscape:swatch="solid"><stop
         style="stop-color:#e2e2e2;stop-opacity:1;"
         offset="0"
         id="stop88" /></linearGradient><linearGradient
       id="swatch1"
       inkscape:swatch="solid"><stop
         style="stop-color:#ffffff;stop-opacity:1;"
         offset="0"
         id="stop1" /></linearGradient></defs><g
     inkscape:label="Capa 1"
     inkscape:groupmode="layer"
     id="layer1"
     transform="translate(-10311.05,-184.76857)"><path
       sodipodi:type="star"
       style="fill:#170641;fill-opacity:1;stroke:none;stroke-width:5.22021;stroke-linecap:round;stroke-linejoin:round;stroke-dasharray:none;stroke-dashoffset:1315.28;stroke-opacity:1;paint-order:stroke fill markers"
       id="path176"
       inkscape:flatsided="false"
       sodipodi:sides="5"
       sodipodi:cx="10371.667"
       sodipodi:cy="210.83984"
       sodipodi:r1="96.146385"
       sodipodi:r2="77.686424"
       sodipodi:arg1="0.52359878"
       sodipodi:arg2="1.1519173"
       inkscape:rounded="0.3014581"
       inkscape:randomized="0"
       d="m 10454.932,258.91304 c -8.518,14.754 -36.104,15.96753 -51.667,22.89688 -15.564,6.92935 -34.924,26.61736 -51.588,23.07528 -16.664,-3.54208 -26.343,-29.40244 -37.742,-42.06299 -11.4,-12.66056 -36.107,-24.9892 -37.888,-41.93233 -1.78,-16.94313 19.823,-34.13924 28.342,-48.89325 8.518,-14.754 12.608,-42.06153 28.172,-48.99088 15.563,-6.92935 38.594,8.30323 55.258,11.8453 16.664,3.54208 43.899,-1.00625 55.299,11.65431 11.399,12.66055 4.029,39.27091 5.81,56.21404 1.781,16.94313 14.522,41.43963 6.004,56.19364 z"
       inkscape:transform-center-y="-4.2509485"
       transform="matrix(0.43893949,-0.25342183,0.25342183,0.43893949,5746.7516,2767.469)"
       inkscape:transform-center-x="-1.3992918"
       inkscape:export-filename="enclosure_icon_a.svg"
       inkscape:export-xdpi="23.962503"
       inkscape:export-ydpi="23.962503" /><path
       d="m 10334.287,248.59189 14.654,-36.86758 h 8.403 l 14.549,36.86758 h -10.347 l -6.303,-17.11709 q -0.525,-1.42204 -0.945,-2.6334 -0.42,-1.21136 -0.788,-2.37006 -0.368,-1.1587 -0.735,-2.37006 -0.315,-1.21136 -0.578,-2.6334 l 1.681,-0.0526 q -0.315,1.52737 -0.683,2.73873 -0.315,1.21136 -0.683,2.31739 -0.367,1.10603 -0.84,2.31739 -0.42,1.21136 -0.945,2.68607 l -6.303,17.1171 z m 7.143,-6.10948 3.099,-7.37352 h 17.017 l 2.889,7.37352 z"
       id="text178"
       style="font-size:88.1204px;font-family:Lexend;-inkscape-font-specification:Lexend;letter-spacing:1.18018px;fill:#e7e1ef;stroke-width:2.64583;stroke-linecap:round;stroke-linejoin:round;stroke-dashoffset:1315.28;paint-order:stroke fill markers"
       aria-label="A" /></g></svg>
