{
	"asset":{
		"generator":"Khronos glTF Blender I/O v4.3.47",
		"version":"2.0"
	},
	"scene":0,
	"scenes":[
		{
			"name":"Scene",
			"nodes":[
				0
			]
		}
	],
	"nodes":[
		{
			"mesh":0,
			"name":"acorn_blue"
		}
	],
	"materials":[
		{
			"doubleSided":true,
			"name":"acorn.005",
			"pbrMetallicRoughness":{
				"baseColorTexture":{
					"index":0
				},
				"metallicFactor":0,
				"roughnessFactor":0.5
			}
		}
	],
	"meshes":[
		{
			"name":"Cylinder.005",
			"primitives":[
				{
					"attributes":{
						"POSITION":0,
						"NORMAL":1,
						"TEXCOORD_0":2,
						"COLOR_0":3,
						"COLOR_1":4
					},
					"indices":5,
					"material":0
				}
			]
		}
	],
	"textures":[
		{
			"sampler":0,
			"source":0
		}
	],
	"images":[
		{
			"mimeType":"image/png",
			"name":"acorn_blue",
			"uri":"acorn_blue.png"
		}
	],
	"accessors":[
		{
			"bufferView":0,
			"componentType":5126,
			"count":1092,
			"max":[
				0.1968836933374405,
				0.18070800602436066,
				0.19697363674640656
			],
			"min":[
				-0.19688564538955688,
				-0.18548457324504852,
				-0.19688355922698975
			],
			"type":"VEC3"
		},
		{
			"bufferView":1,
			"componentType":5126,
			"count":1092,
			"type":"VEC3"
		},
		{
			"bufferView":2,
			"componentType":5126,
			"count":1092,
			"type":"VEC2"
		},
		{
			"bufferView":3,
			"componentType":5121,
			"count":1092,
			"normalized":true,
			"type":"VEC4"
		},
		{
			"bufferView":4,
			"componentType":5123,
			"count":1092,
			"normalized":true,
			"type":"VEC4"
		},
		{
			"bufferView":5,
			"componentType":5123,
			"count":4464,
			"type":"SCALAR"
		}
	],
	"bufferViews":[
		{
			"buffer":0,
			"byteLength":13104,
			"byteOffset":0,
			"target":34962
		},
		{
			"buffer":0,
			"byteLength":13104,
			"byteOffset":13104,
			"target":34962
		},
		{
			"buffer":0,
			"byteLength":8736,
			"byteOffset":26208,
			"target":34962
		},
		{
			"buffer":0,
			"byteLength":4368,
			"byteOffset":34944,
			"target":34962
		},
		{
			"buffer":0,
			"byteLength":8736,
			"byteOffset":39312,
			"target":34962
		},
		{
			"buffer":0,
			"byteLength":8928,
			"byteOffset":48048,
			"target":34963
		}
	],
	"samplers":[
		{
			"magFilter":9729,
			"minFilter":9987
		}
	],
	"buffers":[
		{
			"byteLength":56976,
			"uri":"acorn_blue.bin"
		}
	]
}
