{
	"asset":{
		"generator":"Khronos glTF Blender I/O v4.3.47",
		"version":"2.0"
	},
	"scene":0,
	"scenes":[
		{
			"name":"Scene",
			"nodes":[
				0
			]
		}
	],
	"nodes":[
		{
			"mesh":0,
			"name":"acorn_green"
		}
	],
	"materials":[
		{
			"doubleSided":true,
			"name":"acorn.004",
			"pbrMetallicRoughness":{
				"baseColorTexture":{
					"index":0
				},
				"metallicFactor":0,
				"roughnessFactor":0.5
			}
		}
	],
	"meshes":[
		{
			"name":"Cylinder.004",
			"primitives":[
				{
					"attributes":{
						"POSITION":0,
						"NORMAL":1,
						"TEXCOORD_0":2,
						"COLOR_0":3,
						"COLOR_1":4
					},
					"indices":5,
					"material":0
				}
			]
		}
	],
	"textures":[
		{
			"sampler":0,
			"source":0
		}
	],
	"images":[
		{
			"mimeType":"image/png",
			"name":"acorn_green",
			"uri":"acorn_green.png"
		}
	],
	"accessors":[
		{
			"bufferView":0,
			"componentType":5126,
			"count":1150,
			"max":[
				0.18271556496620178,
				0.23143531382083893,
				0.2053672820329666
			],
			"min":[
				-0.1852891594171524,
				-0.22434689104557037,
				-0.20536614954471588
			],
			"type":"VEC3"
		},
		{
			"bufferView":1,
			"componentType":5126,
			"count":1150,
			"type":"VEC3"
		},
		{
			"bufferView":2,
			"componentType":5126,
			"count":1150,
			"type":"VEC2"
		},
		{
			"bufferView":3,
			"componentType":5121,
			"count":1150,
			"normalized":true,
			"type":"VEC4"
		},
		{
			"bufferView":4,
			"componentType":5123,
			"count":1150,
			"normalized":true,
			"type":"VEC4"
		},
		{
			"bufferView":5,
			"componentType":5123,
			"count":4176,
			"type":"SCALAR"
		}
	],
	"bufferViews":[
		{
			"buffer":0,
			"byteLength":13800,
			"byteOffset":0,
			"target":34962
		},
		{
			"buffer":0,
			"byteLength":13800,
			"byteOffset":13800,
			"target":34962
		},
		{
			"buffer":0,
			"byteLength":9200,
			"byteOffset":27600,
			"target":34962
		},
		{
			"buffer":0,
			"byteLength":4600,
			"byteOffset":36800,
			"target":34962
		},
		{
			"buffer":0,
			"byteLength":9200,
			"byteOffset":41400,
			"target":34962
		},
		{
			"buffer":0,
			"byteLength":8352,
			"byteOffset":50600,
			"target":34963
		}
	],
	"samplers":[
		{
			"magFilter":9729,
			"minFilter":9987
		}
	],
	"buffers":[
		{
			"byteLength":58952,
			"uri":"acorn_green.bin"
		}
	]
}
