{
	"asset":{
		"generator":"Khronos glTF Blender I/O v4.3.47",
		"version":"2.0"
	},
	"scene":0,
	"scenes":[
		{
			"name":"Scene",
			"nodes":[
				1
			]
		}
	],
	"nodes":[
		{
			"mesh":0,
			"name":"Button"
		},
		{
			"children":[
				0
			],
			"mesh":1,
			"name":"AcornButton"
		}
	],
	"materials":[
		{
			"doubleSided":true,
			"name":"interactables",
			"pbrMetallicRoughness":{
				"baseColorTexture":{
					"index":0
				},
				"metallicFactor":0
			}
		}
	],
	"meshes":[
		{
			"name":"button",
			"primitives":[
				{
					"attributes":{
						"POSITION":0,
						"NORMAL":1,
						"TEXCOORD_0":2
					},
					"indices":3,
					"material":0
				}
			]
		},
		{
			"name":"button-round",
			"primitives":[
				{
					"attributes":{
						"POSITION":4,
						"NORMAL":5,
						"TEXCOORD_0":6
					},
					"indices":7,
					"material":0
				}
			]
		}
	],
	"textures":[
		{
			"sampler":0,
			"source":0
		}
	],
	"images":[
		{
			"mimeType":"image/png",
			"name":"interactables",
			"uri":"interactables.png"
		}
	],
	"accessors":[
		{
			"bufferView":0,
			"componentType":5126,
			"count":107,
			"max":[
				0.3490111231803894,
				0.31438449025154114,
				0.3370390236377716
			],
			"min":[
				-0.349011093378067,
				0.025098878890275955,
				-0.3370390236377716
			],
			"type":"VEC3"
		},
		{
			"bufferView":1,
			"componentType":5126,
			"count":107,
			"type":"VEC3"
		},
		{
			"bufferView":2,
			"componentType":5126,
			"count":107,
			"type":"VEC2"
		},
		{
			"bufferView":3,
			"componentType":5123,
			"count":396,
			"type":"SCALAR"
		},
		{
			"bufferView":4,
			"componentType":5126,
			"count":168,
			"max":[
				0.49389877915382385,
				0.1784971058368683,
				0.4918881356716156
			],
			"min":[
				-0.49389880895614624,
				0.0011023004772141576,
				-0.49188828468322754
			],
			"type":"VEC3"
		},
		{
			"bufferView":5,
			"componentType":5126,
			"count":168,
			"type":"VEC3"
		},
		{
			"bufferView":6,
			"componentType":5126,
			"count":168,
			"type":"VEC2"
		},
		{
			"bufferView":7,
			"componentType":5123,
			"count":606,
			"type":"SCALAR"
		}
	],
	"bufferViews":[
		{
			"buffer":0,
			"byteLength":1284,
			"byteOffset":0,
			"target":34962
		},
		{
			"buffer":0,
			"byteLength":1284,
			"byteOffset":1284,
			"target":34962
		},
		{
			"buffer":0,
			"byteLength":856,
			"byteOffset":2568,
			"target":34962
		},
		{
			"buffer":0,
			"byteLength":792,
			"byteOffset":3424,
			"target":34963
		},
		{
			"buffer":0,
			"byteLength":2016,
			"byteOffset":4216,
			"target":34962
		},
		{
			"buffer":0,
			"byteLength":2016,
			"byteOffset":6232,
			"target":34962
		},
		{
			"buffer":0,
			"byteLength":1344,
			"byteOffset":8248,
			"target":34962
		},
		{
			"buffer":0,
			"byteLength":1212,
			"byteOffset":9592,
			"target":34963
		}
	],
	"samplers":[
		{
			"magFilter":9728,
			"minFilter":9984
		}
	],
	"buffers":[
		{
			"byteLength":10804,
			"uri":"acorn_button.bin"
		}
	]
}
