{
	"asset":{
		"generator":"Khronos glTF Blender I/O v4.3.47",
		"version":"2.0"
	},
	"scene":0,
	"scenes":[
		{
			"name":"Scene",
			"nodes":[
				1
			]
		}
	],
	"nodes":[
		{
			"mesh":0,
			"name":"Buttonn"
		},
		{
			"children":[
				0
			],
			"mesh":1,
			"name":"BoarButton"
		}
	],
	"animations":[
		{
			"channels":[
				{
					"sampler":0,
					"target":{
						"node":0,
						"path":"translation"
					}
				}
			],
			"name":"toggle-off",
			"samplers":[
				{
					"input":8,
					"interpolation":"LINEAR",
					"output":9
				}
			]
		},
		{
			"channels":[
				{
					"sampler":0,
					"target":{
						"node":0,
						"path":"translation"
					}
				}
			],
			"name":"toggle-on",
			"samplers":[
				{
					"input":8,
					"interpolation":"LINEAR",
					"output":10
				}
			]
		},
		{
			"channels":[
				{
					"sampler":0,
					"target":{
						"node":0,
						"path":"translation"
					}
				}
			],
			"name":"toggle",
			"samplers":[
				{
					"input":11,
					"interpolation":"LINEAR",
					"output":12
				}
			]
		}
	],
	"materials":[
		{
			"doubleSided":true,
			"name":"interactables",
			"pbrMetallicRoughness":{
				"baseColorTexture":{
					"index":0
				},
				"metallicFactor":0
			}
		}
	],
	"meshes":[
		{
			"name":"button.001",
			"primitives":[
				{
					"attributes":{
						"POSITION":0,
						"NORMAL":1,
						"TEXCOORD_0":2
					},
					"indices":3,
					"material":0
				}
			]
		},
		{
			"name":"button-square",
			"primitives":[
				{
					"attributes":{
						"POSITION":4,
						"NORMAL":5,
						"TEXCOORD_0":6
					},
					"indices":7,
					"material":0
				}
			]
		}
	],
	"textures":[
		{
			"sampler":0,
			"source":0
		}
	],
	"images":[
		{
			"mimeType":"image/png",
			"name":"interactables",
			"uri":"interactables.png"
		}
	],
	"accessors":[
		{
			"bufferView":0,
			"componentType":5126,
			"count":160,
			"max":[
				0.5557010769844055,
				0.1317657232284546,
				0.5557010769844055
			],
			"min":[
				-0.5557010769844055,
				0.013762702234089375,
				-0.5557010769844055
			],
			"type":"VEC3"
		},
		{
			"bufferView":1,
			"componentType":5126,
			"count":160,
			"type":"VEC3"
		},
		{
			"bufferView":2,
			"componentType":5126,
			"count":160,
			"type":"VEC2"
		},
		{
			"bufferView":3,
			"componentType":5123,
			"count":492,
			"type":"SCALAR"
		},
		{
			"bufferView":4,
			"componentType":5126,
			"count":542,
			"max":[
				0.6997718214988708,
				0.05883606895804405,
				0.6983040571212769
			],
			"min":[
				-0.6969092488288879,
				-0.006787830963730812,
				-0.6983771324157715
			],
			"type":"VEC3"
		},
		{
			"bufferView":5,
			"componentType":5126,
			"count":542,
			"type":"VEC3"
		},
		{
			"bufferView":6,
			"componentType":5126,
			"count":542,
			"type":"VEC2"
		},
		{
			"bufferView":7,
			"componentType":5123,
			"count":1350,
			"type":"SCALAR"
		},
		{
			"bufferView":8,
			"componentType":5126,
			"count":5,
			"max":[
				0.16666666666666666
			],
			"min":[
				0
			],
			"type":"SCALAR"
		},
		{
			"bufferView":9,
			"componentType":5126,
			"count":5,
			"type":"VEC3"
		},
		{
			"bufferView":10,
			"componentType":5126,
			"count":5,
			"type":"VEC3"
		},
		{
			"bufferView":11,
			"componentType":5126,
			"count":13,
			"max":[
				0.5
			],
			"min":[
				0
			],
			"type":"SCALAR"
		},
		{
			"bufferView":12,
			"componentType":5126,
			"count":13,
			"type":"VEC3"
		}
	],
	"bufferViews":[
		{
			"buffer":0,
			"byteLength":1920,
			"byteOffset":0,
			"target":34962
		},
		{
			"buffer":0,
			"byteLength":1920,
			"byteOffset":1920,
			"target":34962
		},
		{
			"buffer":0,
			"byteLength":1280,
			"byteOffset":3840,
			"target":34962
		},
		{
			"buffer":0,
			"byteLength":984,
			"byteOffset":5120,
			"target":34963
		},
		{
			"buffer":0,
			"byteLength":6504,
			"byteOffset":6104,
			"target":34962
		},
		{
			"buffer":0,
			"byteLength":6504,
			"byteOffset":12608,
			"target":34962
		},
		{
			"buffer":0,
			"byteLength":4336,
			"byteOffset":19112,
			"target":34962
		},
		{
			"buffer":0,
			"byteLength":2700,
			"byteOffset":23448,
			"target":34963
		},
		{
			"buffer":0,
			"byteLength":20,
			"byteOffset":26148
		},
		{
			"buffer":0,
			"byteLength":60,
			"byteOffset":26168
		},
		{
			"buffer":0,
			"byteLength":60,
			"byteOffset":26228
		},
		{
			"buffer":0,
			"byteLength":52,
			"byteOffset":26288
		},
		{
			"buffer":0,
			"byteLength":156,
			"byteOffset":26340
		}
	],
	"samplers":[
		{
			"magFilter":9728,
			"minFilter":9984
		}
	],
	"buffers":[
		{
			"byteLength":26496,
			"uri":"boar_button.bin"
		}
	]
}
