{
	"asset":{
		"generator":"Khronos glTF Blender I/O v4.3.47",
		"version":"2.0"
	},
	"scene":0,
	"scenes":[
		{
			"name":"Scene",
			"nodes":[
				0
			]
		}
	],
	"nodes":[
		{
			"mesh":0,
			"name":"DarkerGrass"
		}
	],
	"materials":[
		{
			"doubleSided":true,
			"name":"interactables",
			"pbrMetallicRoughness":{
				"baseColorTexture":{
					"index":0
				},
				"metallicFactor":0
			}
		}
	],
	"meshes":[
		{
			"name":"Icosphere.001",
			"primitives":[
				{
					"attributes":{
						"POSITION":0,
						"NORMAL":1,
						"TEXCOORD_0":2
					},
					"indices":3,
					"material":0
				}
			]
		}
	],
	"textures":[
		{
			"sampler":0,
			"source":0
		}
	],
	"images":[
		{
			"mimeType":"image/png",
			"name":"interactables",
			"uri":"interactables.png"
		}
	],
	"accessors":[
		{
			"bufferView":0,
			"componentType":5126,
			"count":127,
			"max":[
				0.05044941231608391,
				0.3164573907852173,
				0.05271170288324356
			],
			"min":[
				-0.049814656376838684,
				0.00015638067270629108,
				-0.052712079137563705
			],
			"type":"VEC3"
		},
		{
			"bufferView":1,
			"componentType":5126,
			"count":127,
			"type":"VEC3"
		},
		{
			"bufferView":2,
			"componentType":5126,
			"count":127,
			"type":"VEC2"
		},
		{
			"bufferView":3,
			"componentType":5123,
			"count":624,
			"type":"SCALAR"
		}
	],
	"bufferViews":[
		{
			"buffer":0,
			"byteLength":1524,
			"byteOffset":0,
			"target":34962
		},
		{
			"buffer":0,
			"byteLength":1524,
			"byteOffset":1524,
			"target":34962
		},
		{
			"buffer":0,
			"byteLength":1016,
			"byteOffset":3048,
			"target":34962
		},
		{
			"buffer":0,
			"byteLength":1248,
			"byteOffset":4064,
			"target":34963
		}
	],
	"samplers":[
		{
			"magFilter":9728,
			"minFilter":9984
		}
	],
	"buffers":[
		{
			"byteLength":5312,
			"uri":"DarkerGrass.bin"
		}
	]
}
