{
	"asset":{
		"generator":"Khronos glTF Blender I/O v4.3.47",
		"version":"2.0"
	},
	"scene":0,
	"scenes":[
		{
			"name":"Scene",
			"nodes":[
				0
			]
		}
	],
	"nodes":[
		{
			"mesh":0,
			"name":"FloorSand"
		}
	],
	"materials":[
		{
			"doubleSided":true,
			"name":"interactables",
			"pbrMetallicRoughness":{
				"baseColorTexture":{
					"index":0
				},
				"metallicFactor":0
			}
		}
	],
	"meshes":[
		{
			"name":"Cylinder.002",
			"primitives":[
				{
					"attributes":{
						"POSITION":0,
						"NORMAL":1,
						"TEXCOORD_0":2
					},
					"indices":3,
					"material":0
				}
			]
		}
	],
	"textures":[
		{
			"sampler":0,
			"source":0
		}
	],
	"images":[
		{
			"mimeType":"image/png",
			"name":"interactables",
			"uri":"interactables.png"
		}
	],
	"accessors":[
		{
			"bufferView":0,
			"componentType":5126,
			"count":767,
			"max":[
				4.408083915710449,
				0.3877496123313904,
				2.902165412902832
			],
			"min":[
				-4.445205211639404,
				0.01794491708278656,
				-3.87593674659729
			],
			"type":"VEC3"
		},
		{
			"bufferView":1,
			"componentType":5126,
			"count":767,
			"type":"VEC3"
		},
		{
			"bufferView":2,
			"componentType":5126,
			"count":767,
			"type":"VEC2"
		},
		{
			"bufferView":3,
			"componentType":5123,
			"count":1560,
			"type":"SCALAR"
		}
	],
	"bufferViews":[
		{
			"buffer":0,
			"byteLength":9204,
			"byteOffset":0,
			"target":34962
		},
		{
			"buffer":0,
			"byteLength":9204,
			"byteOffset":9204,
			"target":34962
		},
		{
			"buffer":0,
			"byteLength":6136,
			"byteOffset":18408,
			"target":34962
		},
		{
			"buffer":0,
			"byteLength":3120,
			"byteOffset":24544,
			"target":34963
		}
	],
	"samplers":[
		{
			"magFilter":9728,
			"minFilter":9984
		}
	],
	"buffers":[
		{
			"byteLength":27664,
			"uri":"FloorSand.bin"
		}
	]
}
