{
	"asset":{
		"generator":"Khronos glTF Blender I/O v4.3.47",
		"version":"2.0"
	},
	"scene":0,
	"scenes":[
		{
			"name":"Scene",
			"nodes":[
				0
			]
		}
	],
	"nodes":[
		{
			"mesh":0,
			"name":"MovingAcornPlatform"
		}
	],
	"materials":[
		{
			"doubleSided":true,
			"name":"interactables",
			"pbrMetallicRoughness":{
				"baseColorTexture":{
					"index":0
				},
				"metallicFactor":0
			}
		}
	],
	"meshes":[
		{
			"name":"platform.002",
			"primitives":[
				{
					"attributes":{
						"POSITION":0,
						"NORMAL":1,
						"TEXCOORD_0":2
					},
					"indices":3,
					"material":0
				}
			]
		}
	],
	"textures":[
		{
			"sampler":0,
			"source":0
		}
	],
	"images":[
		{
			"mimeType":"image/png",
			"name":"interactables",
			"uri":"interactables.png"
		}
	],
	"accessors":[
		{
			"bufferView":0,
			"componentType":5126,
			"count":361,
			"max":[
				0.8197576999664307,
				0.2157401591539383,
				0.8165018558502197
			],
			"min":[
				-0.8197576999664307,
				0,
				-0.8165018558502197
			],
			"type":"VEC3"
		},
		{
			"bufferView":1,
			"componentType":5126,
			"count":361,
			"type":"VEC3"
		},
		{
			"bufferView":2,
			"componentType":5126,
			"count":361,
			"type":"VEC2"
		},
		{
			"bufferView":3,
			"componentType":5123,
			"count":948,
			"type":"SCALAR"
		}
	],
	"bufferViews":[
		{
			"buffer":0,
			"byteLength":4332,
			"byteOffset":0,
			"target":34962
		},
		{
			"buffer":0,
			"byteLength":4332,
			"byteOffset":4332,
			"target":34962
		},
		{
			"buffer":0,
			"byteLength":2888,
			"byteOffset":8664,
			"target":34962
		},
		{
			"buffer":0,
			"byteLength":1896,
			"byteOffset":11552,
			"target":34963
		}
	],
	"samplers":[
		{
			"magFilter":9728,
			"minFilter":9984
		}
	],
	"buffers":[
		{
			"byteLength":13448,
			"uri":"moving_acorn_platform.bin"
		}
	]
}
