{
	"asset":{
		"generator":"Khronos glTF Blender I/O v4.3.47",
		"version":"2.0"
	},
	"scene":0,
	"scenes":[
		{
			"name":"Scene",
			"nodes":[
				0
			]
		}
	],
	"nodes":[
		{
			"mesh":0,
			"name":"RockGroup"
		}
	],
	"materials":[
		{
			"doubleSided":true,
			"name":"interactables",
			"pbrMetallicRoughness":{
				"baseColorTexture":{
					"index":0
				},
				"metallicFactor":0
			}
		}
	],
	"meshes":[
		{
			"name":"Cylinder.005",
			"primitives":[
				{
					"attributes":{
						"POSITION":0,
						"NORMAL":1,
						"TEXCOORD_0":2
					},
					"indices":3,
					"material":0
				}
			]
		}
	],
	"textures":[
		{
			"sampler":0,
			"source":0
		}
	],
	"images":[
		{
			"mimeType":"image/png",
			"name":"interactables",
			"uri":"interactables.png"
		}
	],
	"accessors":[
		{
			"bufferView":0,
			"componentType":5126,
			"count":1341,
			"max":[
				1.030318021774292,
				1.9999383687973022,
				0.8305813074111938
			],
			"min":[
				-1.033030390739441,
				0.007517782039940357,
				-0.8811460733413696
			],
			"type":"VEC3"
		},
		{
			"bufferView":1,
			"componentType":5126,
			"count":1341,
			"type":"VEC3"
		},
		{
			"bufferView":2,
			"componentType":5126,
			"count":1341,
			"type":"VEC2"
		},
		{
			"bufferView":3,
			"componentType":5123,
			"count":5418,
			"type":"SCALAR"
		}
	],
	"bufferViews":[
		{
			"buffer":0,
			"byteLength":16092,
			"byteOffset":0,
			"target":34962
		},
		{
			"buffer":0,
			"byteLength":16092,
			"byteOffset":16092,
			"target":34962
		},
		{
			"buffer":0,
			"byteLength":10728,
			"byteOffset":32184,
			"target":34962
		},
		{
			"buffer":0,
			"byteLength":10836,
			"byteOffset":42912,
			"target":34963
		}
	],
	"samplers":[
		{
			"magFilter":9728,
			"minFilter":9984
		}
	],
	"buffers":[
		{
			"byteLength":53748,
			"uri":"RockGroup.bin"
		}
	]
}
