{
	"asset":{
		"generator":"Khronos glTF Blender I/O v4.3.47",
		"version":"2.0"
	},
	"scene":0,
	"scenes":[
		{
			"name":"Scene",
			"nodes":[
				0
			]
		}
	],
	"nodes":[
		{
			"mesh":0,
			"name":"Stone"
		}
	],
	"materials":[
		{
			"doubleSided":true,
			"name":"interactables",
			"pbrMetallicRoughness":{
				"baseColorTexture":{
					"index":0
				},
				"metallicFactor":0
			}
		}
	],
	"meshes":[
		{
			"name":"Cylinder.003",
			"primitives":[
				{
					"attributes":{
						"POSITION":0,
						"NORMAL":1,
						"TEXCOORD_0":2
					},
					"indices":3,
					"material":0
				}
			]
		}
	],
	"textures":[
		{
			"sampler":0,
			"source":0
		}
	],
	"images":[
		{
			"mimeType":"image/png",
			"name":"interactables",
			"uri":"interactables.png"
		}
	],
	"accessors":[
		{
			"bufferView":0,
			"componentType":5126,
			"count":222,
			"max":[
				0.48718392848968506,
				0.2498394101858139,
				0.6161396503448486
			],
			"min":[
				-0.26282569766044617,
				0.0003704913833644241,
				-0.19358694553375244
			],
			"type":"VEC3"
		},
		{
			"bufferView":1,
			"componentType":5126,
			"count":222,
			"type":"VEC3"
		},
		{
			"bufferView":2,
			"componentType":5126,
			"count":222,
			"type":"VEC2"
		},
		{
			"bufferView":3,
			"componentType":5123,
			"count":840,
			"type":"SCALAR"
		}
	],
	"bufferViews":[
		{
			"buffer":0,
			"byteLength":2664,
			"byteOffset":0,
			"target":34962
		},
		{
			"buffer":0,
			"byteLength":2664,
			"byteOffset":2664,
			"target":34962
		},
		{
			"buffer":0,
			"byteLength":1776,
			"byteOffset":5328,
			"target":34962
		},
		{
			"buffer":0,
			"byteLength":1680,
			"byteOffset":7104,
			"target":34963
		}
	],
	"samplers":[
		{
			"magFilter":9728,
			"minFilter":9984
		}
	],
	"buffers":[
		{
			"byteLength":8784,
			"uri":"Stone.bin"
		}
	]
}
