<?xml version="1.0" encoding="UTF-8" standalone="no"?>
<!-- Created with Inkscape (http://www.inkscape.org/) -->

<svg
   width="113.48047"
   height="113.48047"
   viewBox="0 0 30.025041 30.025042"
   version="1.1"
   id="svg1"
   xml:space="preserve"
   sodipodi:docname="settings.svg"
   inkscape:version="1.4.3 (0d15f75, 2025-12-25)"
   inkscape:export-filename="..\..\..\Art\Gato\2D\Demo Covers\demo_1_cover.svg"
   inkscape:export-xdpi="23.962503"
   inkscape:export-ydpi="23.962503"
   xmlns:inkscape="http://www.inkscape.org/namespaces/inkscape"
   xmlns:sodipodi="http://sodipodi.sourceforge.net/DTD/sodipodi-0.dtd"
   xmlns="http://www.w3.org/2000/svg"
   xmlns:svg="http://www.w3.org/2000/svg"><sodipodi:namedview
     id="namedview1"
     pagecolor="#ffffff"
     bordercolor="#000000"
     borderopacity="0.25"
     inkscape:showpageshadow="2"
     inkscape:pageopacity="0.0"
     inkscape:pagecheckerboard="0"
     inkscape:deskcolor="#d1d1d1"
     inkscape:document-units="px"
     inkscape:zoom="0.45254834"
     inkscape:cx="32557.848"
     inkscape:cy="8439.9824"
     inkscape:window-width="1920"
     inkscape:window-height="1009"
     inkscape:window-x="-8"
     inkscape:window-y="-8"
     inkscape:window-maximized="1"
     inkscape:current-layer="layer1"
     showgrid="false"><inkscape:grid
       id="grid12"
       units="mm"
       originx="-8672.3574"
       originy="-2218.1472"
       spacingx="1"
       spacingy="1"
       empcolor="#0099e5"
       empopacity="0.30196078"
       color="#0099e5"
       opacity="0.14901961"
       empspacing="5"
       dotted="false"
       gridanglex="30"
       gridanglez="30"
       visible="false" /><inkscape:page
       x="0"
       y="0"
       width="30.025042"
       height="30.025042"
       id="page2"
       margin="0"
       bleed="0" /></sodipodi:namedview><defs
     id="defs1"><linearGradient
       id="swatch87"
       inkscape:swatch="solid"><stop
         style="stop-color:#e2e2e2;stop-opacity:1;"
         offset="0"
         id="stop88" /></linearGradient><linearGradient
       id="swatch1"
       inkscape:swatch="solid"><stop
         style="stop-color:#ffffff;stop-opacity:1;"
         offset="0"
         id="stop1" /></linearGradient></defs><g
     inkscape:label="Capa 1"
     inkscape:groupmode="layer"
     id="layer1"
     transform="translate(-8672.3575,-2218.1472)"><g
       id="g263"
       transform="matrix(0.28196889,0,0,0.28196889,5927.5133,2035.3326)"
       inkscape:export-filename="high_contrast_icon.svg"
       inkscape:export-xdpi="23.962503"
       inkscape:export-ydpi="23.962503"><g
         id="g253"
         style="stroke:#e7e1ef;stroke-width:10.5833;stroke-dasharray:none;stroke-opacity:1"><circle
           style="fill:#e7e1ef;fill-opacity:1;stroke:#e7e1ef;stroke-width:10.5833;stroke-linecap:round;stroke-linejoin:round;stroke-dasharray:none;stroke-dashoffset:1315.28;stroke-opacity:1;paint-order:stroke fill markers"
           id="circle245"
           cx="9787.3955"
           cy="701.49286"
           r="19.31325" /><path
           d="m 9786.3986,688.09333 a 13.105136,13.335909 0 0 0 -13.1051,13.33585 13.105136,13.335909 0 0 0 13.1051,13.33607 13.105136,13.335909 0 0 0 0.3142,-0.004 v -26.66393 a 13.105136,13.335909 0 0 0 -0.3142,-0.004 z"
           style="fill:#54c5da;fill-opacity:1;stroke:#e7e1ef;stroke-width:10.5833;stroke-linecap:round;stroke-linejoin:round;stroke-dasharray:none;stroke-dashoffset:1315.28;stroke-opacity:1;paint-order:stroke fill markers"
           id="path245" /><path
           d="m 9787.8069,653.64177 c -0.058,0.11562 -8.4744,16.93765 -5.3703,20.04167 l 5.3703,-0.16433 h 5e-4 l 5.3697,0.16433 c 3.1042,-3.10402 -5.3118,-19.92605 -5.3697,-20.04167 z"
           style="fill:#54c5da;stroke:#e7e1ef;stroke-width:10.5833;stroke-linecap:round;stroke-linejoin:round;stroke-dasharray:none;stroke-dashoffset:1315.28;stroke-opacity:1;paint-order:stroke fill markers"
           id="path246"
           inkscape:transform-center-y="-37.929304" /><path
           d="m 9821.7128,667.68605 c -0.1228,0.0408 -17.9691,5.98442 -17.969,10.37423 l 3.9136,3.68117 3e-4,3.6e-4 3.6808,3.91315 c 4.3898,1.3e-4 10.3338,-17.84586 10.3746,-17.96855 z"
           style="fill:#54c5da;stroke:#e7e1ef;stroke-width:10.5833;stroke-linecap:round;stroke-linejoin:round;stroke-dasharray:none;stroke-dashoffset:1315.28;stroke-opacity:1;paint-order:stroke fill markers"
           id="path247"
           inkscape:transform-center-y="-24.921404"
           inkscape:transform-center-x="-24.921567" /><path
           d="m 9835.757,701.59195 c -0.1156,-0.058 -16.9376,-8.47445 -20.0416,-5.37031 l 0.1643,5.37031 v 4.7e-4 l -0.1643,5.36973 c 3.1039,3.10415 19.926,-5.31183 20.0416,-5.36973 z"
           style="fill:#54c5da;stroke:#e7e1ef;stroke-width:10.5833;stroke-linecap:round;stroke-linejoin:round;stroke-dasharray:none;stroke-dashoffset:1315.28;stroke-opacity:1;paint-order:stroke fill markers"
           id="path248"
           inkscape:transform-center-y="3.7590629e-06"
           inkscape:transform-center-x="-37.929317" /><path
           d="m 9821.7127,735.49779 c -0.041,-0.12275 -5.9843,-17.96903 -10.3742,-17.96893 l -3.6812,3.91356 -3e-4,3.3e-4 -3.9131,3.68079 c -2e-4,4.38976 17.8458,10.33378 17.9685,10.37458 z"
           style="fill:#54c5da;stroke:#e7e1ef;stroke-width:10.5833;stroke-linecap:round;stroke-linejoin:round;stroke-dasharray:none;stroke-dashoffset:1315.28;stroke-opacity:1;paint-order:stroke fill markers"
           id="path249"
           inkscape:transform-center-y="24.921582"
           inkscape:transform-center-x="-24.921417" /><path
           d="m 9787.8068,749.54202 c 0.058,-0.11579 8.4745,-16.93756 5.3703,-20.04162 l -5.3703,0.1643 -4e-4,3e-5 -5.3697,-0.16427 c -3.1042,3.10388 5.3118,19.92597 5.3697,20.04158 z"
           style="fill:#54c5da;stroke:#e7e1ef;stroke-width:10.5833;stroke-linecap:round;stroke-linejoin:round;stroke-dasharray:none;stroke-dashoffset:1315.28;stroke-opacity:1;paint-order:stroke fill markers"
           id="path250"
           inkscape:transform-center-y="37.929312" /><path
           d="m 9753.901,735.4977 c 0.1229,-0.0409 17.969,-5.98429 17.9689,-10.37419 l -3.9135,-3.6812 -3e-4,-2.6e-4 -3.6808,-3.91311 c -4.3898,-2.2e-4 -10.3338,17.8458 -10.3746,17.96849 z"
           style="fill:#54c5da;stroke:#e7e1ef;stroke-width:10.5833;stroke-linecap:round;stroke-linejoin:round;stroke-dasharray:none;stroke-dashoffset:1315.28;stroke-opacity:1;paint-order:stroke fill markers"
           id="path251"
           inkscape:transform-center-y="24.921412"
           inkscape:transform-center-x="24.921584" /><path
           d="m 9739.8568,701.59184 c 0.1158,0.058 16.9375,8.47447 20.0416,5.37027 l -0.1643,-5.37026 v -4e-4 l 0.1643,-5.3697 c -3.1039,-3.10421 -19.926,5.31179 -20.0416,5.36969 z"
           style="fill:#54c5da;stroke:#e7e1ef;stroke-width:10.5833;stroke-linecap:round;stroke-linejoin:round;stroke-dasharray:none;stroke-dashoffset:1315.28;stroke-opacity:1;paint-order:stroke fill markers"
           id="path252"
           inkscape:transform-center-y="4.2411545e-06"
           inkscape:transform-center-x="37.929284" /><path
           d="m 9753.9011,667.68603 c 0.041,0.1229 5.9843,17.96898 10.3742,17.96891 l 3.6812,-3.91353 3e-4,-2.8e-4 3.9131,-3.68078 c 2e-4,-4.38979 -17.8458,-10.3338 -17.9685,-10.3746 z"
           style="fill:#54c5da;stroke:#e7e1ef;stroke-width:10.5833;stroke-linecap:round;stroke-linejoin:round;stroke-dasharray:none;stroke-dashoffset:1315.28;stroke-opacity:1;paint-order:stroke fill markers"
           id="path253"
           inkscape:transform-center-y="-24.921564"
           inkscape:transform-center-x="24.921384" /></g><g
         id="g262"><circle
           style="fill:#e7e1ef;fill-opacity:1;stroke:#170641;stroke-width:5.29165;stroke-linecap:round;stroke-linejoin:round;stroke-dasharray:none;stroke-dashoffset:1315.28;stroke-opacity:1;paint-order:stroke fill markers"
           id="circle253"
           cx="9787.3955"
           cy="701.49286"
           r="19.31325" /><path
           d="m 9786.3986,688.09333 a 13.105136,13.335909 0 0 0 -13.1051,13.33585 13.105136,13.335909 0 0 0 13.1051,13.33607 13.105136,13.335909 0 0 0 0.3142,-0.004 v -26.66393 a 13.105136,13.335909 0 0 0 -0.3142,-0.004 z"
           style="fill:#3fbdf3;fill-opacity:1;stroke:#3fbdf3;stroke-width:3.96875;stroke-linecap:round;stroke-linejoin:round;stroke-dasharray:none;stroke-dashoffset:1315.28;stroke-opacity:1;paint-order:stroke fill markers"
           id="path254" /><path
           d="m 9787.8069,653.64177 c -0.058,0.11562 -8.4744,16.93765 -5.3703,20.04167 l 5.3703,-0.16433 h 5e-4 l 5.3697,0.16433 c 3.1042,-3.10402 -5.3118,-19.92605 -5.3697,-20.04167 z"
           style="fill:#3fbdf3;fill-opacity:1;stroke:#170641;stroke-width:5.29167;stroke-linecap:round;stroke-linejoin:round;stroke-dashoffset:1315.28;paint-order:stroke fill markers"
           id="path255"
           inkscape:transform-center-y="-37.929304" /><path
           d="m 9821.7128,667.68605 c -0.1228,0.0408 -17.9691,5.98442 -17.969,10.37423 l 3.9136,3.68117 3e-4,3.6e-4 3.6808,3.91315 c 4.3898,1.3e-4 10.3338,-17.84586 10.3746,-17.96855 z"
           style="fill:#3fbdf3;fill-opacity:1;stroke:#170641;stroke-width:5.29167;stroke-linecap:round;stroke-linejoin:round;stroke-dashoffset:1315.28;paint-order:stroke fill markers"
           id="path256"
           inkscape:transform-center-y="-24.921404"
           inkscape:transform-center-x="-24.921567" /><path
           d="m 9835.757,701.59195 c -0.1156,-0.058 -16.9376,-8.47445 -20.0416,-5.37031 l 0.1643,5.37031 v 4.7e-4 l -0.1643,5.36973 c 3.1039,3.10415 19.926,-5.31183 20.0416,-5.36973 z"
           style="fill:#3fbdf3;fill-opacity:1;stroke:#170641;stroke-width:5.29167;stroke-linecap:round;stroke-linejoin:round;stroke-dashoffset:1315.28;paint-order:stroke fill markers"
           id="path257"
           inkscape:transform-center-y="3.7590629e-06"
           inkscape:transform-center-x="-37.929317" /><path
           d="m 9821.7127,735.49779 c -0.041,-0.12275 -5.9843,-17.96903 -10.3742,-17.96893 l -3.6812,3.91356 -3e-4,3.3e-4 -3.9131,3.68079 c -2e-4,4.38976 17.8458,10.33378 17.9685,10.37458 z"
           style="fill:#3fbdf3;fill-opacity:1;stroke:#170641;stroke-width:5.29167;stroke-linecap:round;stroke-linejoin:round;stroke-dashoffset:1315.28;paint-order:stroke fill markers"
           id="path258"
           inkscape:transform-center-y="24.921582"
           inkscape:transform-center-x="-24.921417" /><path
           d="m 9787.8068,749.54202 c 0.058,-0.11579 8.4745,-16.93756 5.3703,-20.04162 l -5.3703,0.1643 -4e-4,3e-5 -5.3697,-0.16427 c -3.1042,3.10388 5.3118,19.92597 5.3697,20.04158 z"
           style="fill:#3fbdf3;fill-opacity:1;stroke:#170641;stroke-width:5.29167;stroke-linecap:round;stroke-linejoin:round;stroke-dashoffset:1315.28;paint-order:stroke fill markers"
           id="path259"
           inkscape:transform-center-y="37.929312" /><path
           d="m 9753.901,735.4977 c 0.1229,-0.0409 17.969,-5.98429 17.9689,-10.37419 l -3.9135,-3.6812 -3e-4,-2.6e-4 -3.6808,-3.91311 c -4.3898,-2.2e-4 -10.3338,17.8458 -10.3746,17.96849 z"
           style="fill:#3fbdf3;fill-opacity:1;stroke:#170641;stroke-width:5.29167;stroke-linecap:round;stroke-linejoin:round;stroke-dashoffset:1315.28;paint-order:stroke fill markers"
           id="path260"
           inkscape:transform-center-y="24.921412"
           inkscape:transform-center-x="24.921584" /><path
           d="m 9739.8568,701.59184 c 0.1158,0.058 16.9375,8.47447 20.0416,5.37027 l -0.1643,-5.37026 v -4e-4 l 0.1643,-5.3697 c -3.1039,-3.10421 -19.926,5.31179 -20.0416,5.36969 z"
           style="fill:#3fbdf3;fill-opacity:1;stroke:#170641;stroke-width:5.29167;stroke-linecap:round;stroke-linejoin:round;stroke-dashoffset:1315.28;paint-order:stroke fill markers"
           id="path261"
           inkscape:transform-center-y="4.2411545e-06"
           inkscape:transform-center-x="37.929284" /><path
           d="m 9753.9011,667.68603 c 0.041,0.1229 5.9843,17.96898 10.3742,17.96891 l 3.6812,-3.91353 3e-4,-2.8e-4 3.9131,-3.68078 c 2e-4,-4.38979 -17.8458,-10.3338 -17.9685,-10.3746 z"
           style="fill:#3fbdf3;fill-opacity:1;stroke:#170641;stroke-width:5.29167;stroke-linecap:round;stroke-linejoin:round;stroke-dashoffset:1315.28;paint-order:stroke fill markers"
           id="path262"
           inkscape:transform-center-y="-24.921564"
           inkscape:transform-center-x="24.921384" /></g></g></g></svg>
