<?xml version="1.0" encoding="UTF-8" standalone="no"?>
<!-- Created with Inkscape (http://www.inkscape.org/) -->

<svg
   width="48.867676"
   height="42.364258"
   viewBox="0 0 12.929573 11.208877"
   version="1.1"
   id="svg1"
   xml:space="preserve"
   sodipodi:docname="settings.svg"
   inkscape:version="1.3.1 (91b66b0783, 2023-11-16)"
   inkscape:export-filename="..\..\..\Art\Gato\2D\Demo Covers\demo_1_cover.svg"
   inkscape:export-xdpi="23.962503"
   inkscape:export-ydpi="23.962503"
   xmlns:inkscape="http://www.inkscape.org/namespaces/inkscape"
   xmlns:sodipodi="http://sodipodi.sourceforge.net/DTD/sodipodi-0.dtd"
   xmlns="http://www.w3.org/2000/svg"
   xmlns:svg="http://www.w3.org/2000/svg"><sodipodi:namedview
     id="namedview1"
     pagecolor="#ffffff"
     bordercolor="#000000"
     borderopacity="0.25"
     inkscape:showpageshadow="2"
     inkscape:pageopacity="0.0"
     inkscape:pagecheckerboard="0"
     inkscape:deskcolor="#d1d1d1"
     inkscape:document-units="px"
     inkscape:zoom="0.04"
     inkscape:cx="13925"
     inkscape:cy="7912.5"
     inkscape:window-width="1920"
     inkscape:window-height="1009"
     inkscape:window-x="-8"
     inkscape:window-y="-8"
     inkscape:window-maximized="1"
     inkscape:current-layer="layer1"
     showgrid="false"><inkscape:grid
       id="grid12"
       units="mm"
       originx="-598.7917"
       originy="-2372.0957"
       spacingx="1"
       spacingy="1"
       empcolor="#0099e5"
       empopacity="0.30196078"
       color="#0099e5"
       opacity="0.14901961"
       empspacing="5"
       dotted="false"
       gridanglex="30"
       gridanglez="30"
       visible="false" /></sodipodi:namedview><defs
     id="defs1"><linearGradient
       id="swatch87"
       inkscape:swatch="solid"><stop
         style="stop-color:#e2e2e2;stop-opacity:1;"
         offset="0"
         id="stop88" /></linearGradient><linearGradient
       id="swatch1"
       inkscape:swatch="solid"><stop
         style="stop-color:#ffffff;stop-opacity:1;"
         offset="0"
         id="stop1" /></linearGradient></defs><g
     inkscape:label="Capa 1"
     inkscape:groupmode="layer"
     id="layer1"
     transform="translate(-598.79169,-2372.0957)"><path
       style="fill:#ececec;fill-opacity:1;stroke-width:0.214449"
       d="m 603.72093,2383.2669 c -1.20154,-0.1892 -1.99754,-0.5361 -2.92932,-1.2766 -0.80799,-0.6421 -1.56228,-1.8136 -1.83885,-2.856 -0.17352,-0.654 -0.21441,-1.8368 -0.0854,-2.4732 0.45009,-2.2216 2.03083,-3.8858 4.21038,-4.4328 0.70331,-0.1765 1.93776,-0.1768 2.61316,0 1.58988,0.4146 2.84602,1.3804 3.63291,2.7932 0.18793,0.3374 0.48556,1.1461 0.54811,1.4894 l 0.0388,0.2127 h 0.7776 c 0.86898,0 1.03294,0.027 1.03294,0.1634 0,0.111 -2.50594,3.2109 -2.66402,3.2955 -0.0594,0.032 -0.14567,0.043 -0.19169,0.026 -0.0722,-0.028 -2.20319,-2.6034 -2.59407,-3.1354 -0.13617,-0.1853 -0.13673,-0.1906 -0.0288,-0.2695 0.083,-0.061 0.31145,-0.081 0.9281,-0.081 h 0.818 l -0.038,-0.156 c -0.0208,-0.086 -0.13154,-0.3475 -0.24584,-0.5816 -0.30632,-0.6271 -1.0078,-1.3205 -1.65764,-1.6385 -0.63932,-0.3129 -1.1791,-0.4239 -1.87239,-0.3853 -0.97103,0.054 -1.74266,0.4059 -2.44664,1.1155 -0.71815,0.7239 -1.07119,1.5843 -1.07119,2.6105 0,1.0262 0.35304,1.8866 1.07119,2.6105 0.70398,0.7097 1.47561,1.0615 2.44664,1.1156 0.89852,0.05 1.77071,-0.2138 2.46302,-0.7451 0.27579,-0.2117 0.27941,-0.2127 0.36879,-0.098 0.0497,0.063 0.30094,0.3828 0.55838,0.7094 0.25745,0.3266 0.46732,0.6159 0.46634,0.6428 -0.006,0.1742 -1.19384,0.8592 -1.88541,1.0874 -0.75908,0.2504 -1.77989,0.3587 -2.42504,0.2571 z"
       id="path49-2-5"
       inkscape:export-filename="..\..\..\Art\Gato\2D\Demo Covers\reset.svg"
       inkscape:export-xdpi="23.962503"
       inkscape:export-ydpi="23.962503" /></g></svg>
