{
	"asset":{
		"generator":"Khronos glTF Blender I/O v4.3.47",
		"version":"2.0"
	},
	"scene":0,
	"scenes":[
		{
			"name":"Scene",
			"nodes":[
				0
			]
		}
	],
	"nodes":[
		{
			"mesh":0,
			"name":"baseball_ball"
		}
	],
	"materials":[
		{
			"doubleSided":true,
			"name":"throwable",
			"pbrMetallicRoughness":{
				"baseColorTexture":{
					"index":0
				},
				"metallicFactor":0,
				"roughnessFactor":0.5
			}
		}
	],
	"meshes":[
		{
			"name":"Cube.001",
			"primitives":[
				{
					"attributes":{
						"POSITION":0,
						"NORMAL":1,
						"TEXCOORD_0":2
					},
					"indices":3,
					"material":0
				}
			]
		}
	],
	"textures":[
		{
			"sampler":0,
			"source":0
		}
	],
	"images":[
		{
			"mimeType":"image/png",
			"name":"throwable",
			"uri":"throwable.png"
		}
	],
	"accessors":[
		{
			"bufferView":0,
			"componentType":5126,
			"count":410,
			"max":[
				0.19222931563854218,
				0.19276808202266693,
				0.19222930073738098
			],
			"min":[
				-0.1922292858362198,
				-0.1916920691728592,
				-0.19222930073738098
			],
			"type":"VEC3"
		},
		{
			"bufferView":1,
			"componentType":5126,
			"count":410,
			"type":"VEC3"
		},
		{
			"bufferView":2,
			"componentType":5126,
			"count":410,
			"type":"VEC2"
		},
		{
			"bufferView":3,
			"componentType":5123,
			"count":1872,
			"type":"SCALAR"
		}
	],
	"bufferViews":[
		{
			"buffer":0,
			"byteLength":4920,
			"byteOffset":0,
			"target":34962
		},
		{
			"buffer":0,
			"byteLength":4920,
			"byteOffset":4920,
			"target":34962
		},
		{
			"buffer":0,
			"byteLength":3280,
			"byteOffset":9840,
			"target":34962
		},
		{
			"buffer":0,
			"byteLength":3744,
			"byteOffset":13120,
			"target":34963
		}
	],
	"samplers":[
		{
			"magFilter":9729,
			"minFilter":9987
		}
	],
	"buffers":[
		{
			"byteLength":16864,
			"uri":"baseball_ball.bin"
		}
	]
}
