{
	"asset":{
		"generator":"Khronos glTF Blender I/O v4.3.47",
		"version":"2.0"
	},
	"scene":0,
	"scenes":[
		{
			"name":"Scene",
			"nodes":[
				0,
				1
			]
		}
	],
	"nodes":[
		{
			"mesh":0,
			"name":"Lid",
			"translation":[
				0,
				2.086031913757324,
				-1.0271251201629639
			]
		},
		{
			"mesh":1,
			"name":"Container"
		}
	],
	"materials":[
		{
			"doubleSided":true,
			"name":"Bin",
			"pbrMetallicRoughness":{
				"baseColorTexture":{
					"index":0
				},
				"metallicFactor":0,
				"metallicRoughnessTexture":{
					"index":1
				}
			}
		}
	],
	"meshes":[
		{
			"name":"Cube.002",
			"primitives":[
				{
					"attributes":{
						"POSITION":0,
						"NORMAL":1,
						"TEXCOORD_0":2
					},
					"indices":3,
					"material":0
				}
			]
		},
		{
			"name":"Cube.003",
			"primitives":[
				{
					"attributes":{
						"POSITION":4,
						"NORMAL":5,
						"TEXCOORD_0":6
					},
					"indices":7,
					"material":0
				}
			]
		}
	],
	"textures":[
		{
			"sampler":0,
			"source":0
		},
		{
			"sampler":0,
			"source":1
		}
	],
	"images":[
		{
			"mimeType":"image/png",
			"name":"bin",
			"uri":"bin.png"
		}
	],
	"accessors":[
		{
			"bufferView":0,
			"componentType":5126,
			"count":132,
			"max":[
				1,
				0.416248083114624,
				2.027125120162964
			],
			"min":[
				-1,
				0,
				-0.16215968132019043
			],
			"type":"VEC3"
		},
		{
			"bufferView":1,
			"componentType":5126,
			"count":132,
			"type":"VEC3"
		},
		{
			"bufferView":2,
			"componentType":5126,
			"count":132,
			"type":"VEC2"
		},
		{
			"bufferView":3,
			"componentType":5123,
			"count":396,
			"type":"SCALAR"
		},
		{
			"bufferView":4,
			"componentType":5126,
			"count":135,
			"max":[
				1.1399779319763184,
				2.1864023208618164,
				1.1399779319763184
			],
			"min":[
				-1.1399779319763184,
				0.004778742790222168,
				-1.1399779319763184
			],
			"type":"VEC3"
		},
		{
			"bufferView":5,
			"componentType":5126,
			"count":135,
			"type":"VEC3"
		},
		{
			"bufferView":6,
			"componentType":5126,
			"count":135,
			"type":"VEC2"
		},
		{
			"bufferView":7,
			"componentType":5123,
			"count":426,
			"type":"SCALAR"
		}
	],
	"bufferViews":[
		{
			"buffer":0,
			"byteLength":1584,
			"byteOffset":0,
			"target":34962
		},
		{
			"buffer":0,
			"byteLength":1584,
			"byteOffset":1584,
			"target":34962
		},
		{
			"buffer":0,
			"byteLength":1056,
			"byteOffset":3168,
			"target":34962
		},
		{
			"buffer":0,
			"byteLength":792,
			"byteOffset":4224,
			"target":34963
		},
		{
			"buffer":0,
			"byteLength":1620,
			"byteOffset":5016,
			"target":34962
		},
		{
			"buffer":0,
			"byteLength":1620,
			"byteOffset":6636,
			"target":34962
		},
		{
			"buffer":0,
			"byteLength":1080,
			"byteOffset":8256,
			"target":34962
		},
		{
			"buffer":0,
			"byteLength":852,
			"byteOffset":9336,
			"target":34963
		}
	],
	"samplers":[
		{
			"magFilter":9729,
			"minFilter":9987
		}
	],
	"buffers":[
		{
			"byteLength":10188,
			"uri":"bin.bin"
		}
	]
}
